# xmcd CD database file
#
# Track frame offsets:
#	150
#	12777
#	25562
#	42156
#	59429
#	75682
#	91535
#	106735
#	122000
#	140176
#	155940
#
# Disc length: 2238 seconds
#
# Revision: 1
# Processed by: cddbd v1.5.2PL0 Copyright (c) Steve Scherf et al.
# Submitted via: CDex 1.51
#
DISCID=8208bc0b
DTITLE=Western Underground - Unbridled
DYEAR=2007
DGENRE=Country
TTITLE0=Unbridled
TTITLE1=One Hand in the Riggin'
TTITLE2=Think About Rain
TTITLE3=King of Wyoming
TTITLE4=Broken In
TTITLE5=White Buffalo
TTITLE6=Steam Engine
TTITLE7=Good Ol' Days To Come
TTITLE8=Here
TTITLE9=Rock Springs to Cheyenne
TTITLE10=I've Got to Be a Rodeo Man
EXTD=YEAR: 2007
EXTT0=
EXTT1=
EXTT2=
EXTT3=
EXTT4=
EXTT5=
EXTT6=
EXTT7=
EXTT8=
EXTT9=
EXTT10=
PLAYORDER=
